<?xml version="1.0" standalone="no"?>
<!DOCTYPE svg PUBLIC "-//W3C//DTD SVG 20010904//EN"
 "http://www.w3.org/TR/2001/REC-SVG-20010904/DTD/svg10.dtd">
<svg version="1.0" xmlns="http://www.w3.org/2000/svg"
 width="300.000000pt" height="300.000000pt" viewBox="0 0 300.000000 300.000000"
 preserveAspectRatio="xMidYMid meet">
<metadata>
Created by potrace 1.14, written by Peter Selinger 2001-2017
</metadata>
<g transform="translate(0.000000,300.000000) scale(0.100000,-0.100000)"
fill="#000000" stroke="none">
<path d="M683 2988 c-178 -18 -377 -122 -494 -258 -135 -156 -192 -322 -185
-532 15 -400 233 -803 731 -1348 133 -145 704 -708 739 -727 44 -25 58 -13
389 315 691 685 981 1086 1098 1517 30 111 38 372 15 466 -41 161 -153 326
-287 425 -71 52 -204 114 -275 128 -10 3 -37 9 -60 14 -63 14 -230 12 -319 -4
-51 -10 -114 -32 -175 -61 -81 -39 -107 -59 -185 -137 -50 -50 -110 -121 -134
-159 l-43 -67 -47 69 c-187 280 -428 393 -768 359z m1637 -143 c144 -23 266
-88 372 -197 64 -68 128 -184 152 -278 14 -56 14 -194 1 -280 -33 -219 -156
-477 -358 -750 -105 -141 -196 -250 -357 -425 -61 -67 -500 -507 -587 -589
l-41 -38 -123 118 c-480 462 -719 725 -937 1029 -73 103 -182 305 -225 420
-51 134 -70 231 -71 360 -1 138 10 186 66 295 78 152 216 262 394 316 90 28
296 26 389 -3 157 -49 282 -166 400 -373 55 -95 69 -109 106 -110 30 0 57 27
88 90 100 197 251 344 406 394 86 28 228 37 325 21z"/>
<path d="M753 2588 c-31 -15 -41 -58 -39 -170 l1 -98 -112 0 c-109 0 -112 -1
-132 -26 -26 -33 -27 -65 -2 -95 17 -22 27 -24 122 -25 57 -1 109 -2 114 -3 7
-1 11 -37 10 -98 -1 -54 3 -110 8 -126 16 -48 67 -61 108 -28 21 17 23 27 25
127 1 60 2 114 3 120 1 7 34 10 94 9 50 -1 104 3 120 8 50 17 62 69 24 112
-21 25 -27 27 -132 28 l-109 2 -1 113 c-1 98 -4 115 -21 131 -26 25 -54 32
-81 19z"/>
<path d="M1709 2381 c-13 -10 -109 -145 -214 -300 -104 -155 -241 -357 -304
-449 -62 -92 -115 -180 -118 -197 -6 -38 26 -75 65 -75 15 0 146 36 292 80
145 43 266 78 267 76 4 -3 -16 -38 -215 -378 -106 -180 -192 -338 -192 -351 0
-53 77 -88 113 -52 13 12 349 578 484 815 48 83 52 107 25 141 -28 33 -63 29
-269 -35 -219 -67 -323 -96 -323 -90 0 2 19 32 43 67 24 34 97 141 162 237 65
96 156 230 202 298 101 147 110 187 49 216 -42 20 -38 20 -67 -3z"/>
</g>
</svg>
